# xmcd CD database file
#
# Track frame offsets:
#	150
#	30725
#	44457
#	70865
#	87412
#	109855
#	130752
#	151582
#	177062
#	202452
#
# Disc length: 2966 seconds
#
# Revision: 0
# Processed by: cddbd v1.5.1PL0 Copyright (c) Steve Scherf et al.
# Submitted via: CDex 1.51
#
DISCID=850b940a
DTITLE=THE MONTGOMERY BROTHERS - Groove Yard
DYEAR=1961
DGENRE=Jazz
TTITLE0=Back To Back (Bock To Bock) (Take 3)
TTITLE1=Groove Yard
TTITLE2=If I Should Lose You
TTITLE3=Delirium
TTITLE4=Just For Now
TTITLE5=Doujie (Take 6)
TTITLE6=Heart Strings
TTITLE7=Remember
TTITLE8=Back To Back (Bock To Bock) (Take 1)
TTITLE9=Doujie (Take 7)
EXTD=YEAR: 1961
EXTT0=
EXTT1=
EXTT2=
EXTT3=
EXTT4=
EXTT5=
EXTT6=
EXTT7=
EXTT8=
EXTT9=
PLAYORDER=
